<mxfile host="65bd71144e" pages="4">
    <diagram name="tcp-program-flow" id="AiNl0CB0ZzSMxeLJfLjq">
        <mxGraphModel dx="1610" dy="661" grid="1" gridSize="10" guides="1" tooltips="1" connect="1" arrows="1" fold="1" page="1" pageScale="1" pageWidth="827" pageHeight="1169" math="0" shadow="1">
            <root>
                <mxCell id="0"/>
                <mxCell id="1" parent="0"/>
                <mxCell id="MjZ8GeQzOf2C36DFY4yn-1" value="" style="image;html=1;image=img/lib/clip_art/computers/Server_128x128.png" parent="1" vertex="1">
                    <mxGeometry x="540" y="60" width="80" height="80" as="geometry"/>
                </mxCell>
                <mxCell id="MjZ8GeQzOf2C36DFY4yn-4" value="" style="edgeStyle=orthogonalEdgeStyle;rounded=0;orthogonalLoop=1;jettySize=auto;html=1;" parent="1" source="MjZ8GeQzOf2C36DFY4yn-2" target="MjZ8GeQzOf2C36DFY4yn-3" edge="1">
                    <mxGeometry relative="1" as="geometry"/>
                </mxCell>
                <mxCell id="MjZ8GeQzOf2C36DFY4yn-2" value="getaddrinfo()" style="rounded=0;whiteSpace=wrap;html=1;fillColor=#ffe6cc;strokeColor=#d79b00;sketch=1;curveFitting=1;jiggle=2;shadow=0;" parent="1" vertex="1">
                    <mxGeometry x="520" y="160" width="120" height="40" as="geometry"/>
                </mxCell>
                <mxCell id="MjZ8GeQzOf2C36DFY4yn-6" value="" style="edgeStyle=orthogonalEdgeStyle;rounded=0;orthogonalLoop=1;jettySize=auto;html=1;" parent="1" source="MjZ8GeQzOf2C36DFY4yn-3" target="MjZ8GeQzOf2C36DFY4yn-5" edge="1">
                    <mxGeometry relative="1" as="geometry"/>
                </mxCell>
                <mxCell id="MjZ8GeQzOf2C36DFY4yn-3" value="socket()" style="rounded=0;whiteSpace=wrap;html=1;fillColor=#fff2cc;strokeColor=#d6b656;shadow=0;sketch=1;curveFitting=1;jiggle=2;glass=0;" parent="1" vertex="1">
                    <mxGeometry x="520" y="240" width="120" height="40" as="geometry"/>
                </mxCell>
                <mxCell id="MjZ8GeQzOf2C36DFY4yn-8" value="" style="edgeStyle=orthogonalEdgeStyle;rounded=0;orthogonalLoop=1;jettySize=auto;html=1;" parent="1" source="MjZ8GeQzOf2C36DFY4yn-5" target="MjZ8GeQzOf2C36DFY4yn-7" edge="1">
                    <mxGeometry relative="1" as="geometry"/>
                </mxCell>
                <mxCell id="MjZ8GeQzOf2C36DFY4yn-5" value="bind()" style="rounded=0;whiteSpace=wrap;html=1;sketch=1;curveFitting=1;jiggle=2;fillColor=#f8cecc;strokeColor=#b85450;" parent="1" vertex="1">
                    <mxGeometry x="520" y="320" width="120" height="40" as="geometry"/>
                </mxCell>
                <mxCell id="MjZ8GeQzOf2C36DFY4yn-10" value="" style="edgeStyle=orthogonalEdgeStyle;rounded=0;orthogonalLoop=1;jettySize=auto;html=1;" parent="1" source="MjZ8GeQzOf2C36DFY4yn-7" target="MjZ8GeQzOf2C36DFY4yn-9" edge="1">
                    <mxGeometry relative="1" as="geometry"/>
                </mxCell>
                <mxCell id="MjZ8GeQzOf2C36DFY4yn-7" value="listen()" style="rounded=0;whiteSpace=wrap;html=1;fillColor=#e1d5e7;strokeColor=#9673a6;sketch=1;curveFitting=1;jiggle=2;" parent="1" vertex="1">
                    <mxGeometry x="520" y="400" width="120" height="40" as="geometry"/>
                </mxCell>
                <mxCell id="MjZ8GeQzOf2C36DFY4yn-12" value="" style="edgeStyle=orthogonalEdgeStyle;rounded=0;orthogonalLoop=1;jettySize=auto;html=1;" parent="1" source="MjZ8GeQzOf2C36DFY4yn-9" target="MjZ8GeQzOf2C36DFY4yn-11" edge="1">
                    <mxGeometry relative="1" as="geometry"/>
                </mxCell>
                <mxCell id="MjZ8GeQzOf2C36DFY4yn-9" value="accept()" style="rounded=0;whiteSpace=wrap;html=1;fillColor=#f5f5f5;fontColor=#333333;strokeColor=#666666;shadow=0;sketch=1;curveFitting=1;jiggle=2;" parent="1" vertex="1">
                    <mxGeometry x="520" y="480" width="120" height="40" as="geometry"/>
                </mxCell>
                <mxCell id="MjZ8GeQzOf2C36DFY4yn-14" value="" style="edgeStyle=orthogonalEdgeStyle;rounded=0;orthogonalLoop=1;jettySize=auto;html=1;" parent="1" source="MjZ8GeQzOf2C36DFY4yn-11" target="MjZ8GeQzOf2C36DFY4yn-13" edge="1">
                    <mxGeometry relative="1" as="geometry"/>
                </mxCell>
                <mxCell id="MjZ8GeQzOf2C36DFY4yn-11" value="wait for connection from client" style="text;html=1;strokeColor=none;fillColor=none;align=center;verticalAlign=middle;whiteSpace=wrap;rounded=0;" parent="1" vertex="1">
                    <mxGeometry x="520" y="565" width="120" height="30" as="geometry"/>
                </mxCell>
                <mxCell id="MjZ8GeQzOf2C36DFY4yn-20" value="" style="edgeStyle=orthogonalEdgeStyle;rounded=0;orthogonalLoop=1;jettySize=auto;html=1;" parent="1" source="MjZ8GeQzOf2C36DFY4yn-13" target="MjZ8GeQzOf2C36DFY4yn-18" edge="1">
                    <mxGeometry relative="1" as="geometry"/>
                </mxCell>
                <mxCell id="MjZ8GeQzOf2C36DFY4yn-13" value="recv()" style="whiteSpace=wrap;html=1;fillColor=#b0e3e6;strokeColor=#0e8088;sketch=1;curveFitting=1;jiggle=2;" parent="1" vertex="1">
                    <mxGeometry x="520" y="640" width="120" height="40" as="geometry"/>
                </mxCell>
                <mxCell id="MjZ8GeQzOf2C36DFY4yn-23" value="" style="edgeStyle=orthogonalEdgeStyle;rounded=0;orthogonalLoop=1;jettySize=auto;html=1;" parent="1" source="MjZ8GeQzOf2C36DFY4yn-15" target="MjZ8GeQzOf2C36DFY4yn-22" edge="1">
                    <mxGeometry relative="1" as="geometry"/>
                </mxCell>
                <mxCell id="MjZ8GeQzOf2C36DFY4yn-41" value="data (response)" style="edgeStyle=orthogonalEdgeStyle;rounded=0;orthogonalLoop=1;jettySize=auto;html=1;dashed=1;labelBackgroundColor=none;verticalAlign=bottom;" parent="1" source="MjZ8GeQzOf2C36DFY4yn-15" target="MjZ8GeQzOf2C36DFY4yn-39" edge="1">
                    <mxGeometry relative="1" as="geometry"/>
                </mxCell>
                <mxCell id="MjZ8GeQzOf2C36DFY4yn-15" value="send()" style="whiteSpace=wrap;html=1;fillColor=#b1ddf0;strokeColor=#10739e;sketch=1;curveFitting=1;jiggle=2;" parent="1" vertex="1">
                    <mxGeometry x="520" y="800" width="120" height="40" as="geometry"/>
                </mxCell>
                <mxCell id="MjZ8GeQzOf2C36DFY4yn-21" value="" style="edgeStyle=orthogonalEdgeStyle;rounded=0;orthogonalLoop=1;jettySize=auto;html=1;" parent="1" source="MjZ8GeQzOf2C36DFY4yn-18" target="MjZ8GeQzOf2C36DFY4yn-15" edge="1">
                    <mxGeometry relative="1" as="geometry"/>
                </mxCell>
                <mxCell id="MjZ8GeQzOf2C36DFY4yn-18" value="process request" style="text;html=1;strokeColor=none;fillColor=none;align=center;verticalAlign=middle;whiteSpace=wrap;rounded=0;" parent="1" vertex="1">
                    <mxGeometry x="520" y="730" width="120" height="30" as="geometry"/>
                </mxCell>
                <mxCell id="MjZ8GeQzOf2C36DFY4yn-22" value="close()" style="whiteSpace=wrap;html=1;fillColor=#d0cee2;strokeColor=#56517e;sketch=1;curveFitting=1;jiggle=2;" parent="1" vertex="1">
                    <mxGeometry x="520" y="880" width="120" height="40" as="geometry"/>
                </mxCell>
                <mxCell id="MjZ8GeQzOf2C36DFY4yn-24" value="" style="outlineConnect=0;dashed=0;verticalLabelPosition=bottom;verticalAlign=top;align=center;html=1;shape=mxgraph.aws3.management_console;fillColor=#D2D3D3;gradientColor=none;" parent="1" vertex="1">
                    <mxGeometry x="228.5" y="297" width="63" height="63" as="geometry"/>
                </mxCell>
                <mxCell id="MjZ8GeQzOf2C36DFY4yn-26" style="edgeStyle=orthogonalEdgeStyle;rounded=0;orthogonalLoop=1;jettySize=auto;html=1;dashed=1;" parent="1" source="MjZ8GeQzOf2C36DFY4yn-25" target="MjZ8GeQzOf2C36DFY4yn-11" edge="1">
                    <mxGeometry relative="1" as="geometry"/>
                </mxCell>
                <mxCell id="MjZ8GeQzOf2C36DFY4yn-32" value="" style="edgeStyle=orthogonalEdgeStyle;rounded=0;orthogonalLoop=1;jettySize=auto;html=1;" parent="1" source="MjZ8GeQzOf2C36DFY4yn-25" target="MjZ8GeQzOf2C36DFY4yn-31" edge="1">
                    <mxGeometry relative="1" as="geometry"/>
                </mxCell>
                <mxCell id="MjZ8GeQzOf2C36DFY4yn-25" value="connect()" style="rounded=0;whiteSpace=wrap;html=1;fillColor=#fad9d5;strokeColor=#ae4132;sketch=1;curveFitting=1;jiggle=2;" parent="1" vertex="1">
                    <mxGeometry x="200" y="560" width="120" height="40" as="geometry"/>
                </mxCell>
                <mxCell id="MjZ8GeQzOf2C36DFY4yn-28" value="" style="edgeStyle=orthogonalEdgeStyle;rounded=0;orthogonalLoop=1;jettySize=auto;html=1;" parent="1" source="MjZ8GeQzOf2C36DFY4yn-27" target="MjZ8GeQzOf2C36DFY4yn-25" edge="1">
                    <mxGeometry relative="1" as="geometry"/>
                </mxCell>
                <mxCell id="MjZ8GeQzOf2C36DFY4yn-27" value="socket()" style="rounded=0;whiteSpace=wrap;html=1;fillColor=#fff2cc;strokeColor=#d6b656;shadow=0;sketch=1;curveFitting=1;jiggle=2;" parent="1" vertex="1">
                    <mxGeometry x="200" y="480" width="120" height="40" as="geometry"/>
                </mxCell>
                <mxCell id="MjZ8GeQzOf2C36DFY4yn-30" value="" style="edgeStyle=orthogonalEdgeStyle;rounded=0;orthogonalLoop=1;jettySize=auto;html=1;" parent="1" source="MjZ8GeQzOf2C36DFY4yn-29" target="MjZ8GeQzOf2C36DFY4yn-27" edge="1">
                    <mxGeometry relative="1" as="geometry"/>
                </mxCell>
                <mxCell id="MjZ8GeQzOf2C36DFY4yn-29" value="getaddrinfo()" style="rounded=0;whiteSpace=wrap;html=1;fillColor=#ffe6cc;strokeColor=#d79b00;sketch=1;curveFitting=1;jiggle=2;" parent="1" vertex="1">
                    <mxGeometry x="200" y="400" width="120" height="40" as="geometry"/>
                </mxCell>
                <mxCell id="MjZ8GeQzOf2C36DFY4yn-35" value="data (request)" style="edgeStyle=orthogonalEdgeStyle;rounded=0;orthogonalLoop=1;jettySize=auto;html=1;dashed=1;verticalAlign=bottom;labelBackgroundColor=none;" parent="1" source="MjZ8GeQzOf2C36DFY4yn-31" target="MjZ8GeQzOf2C36DFY4yn-13" edge="1">
                    <mxGeometry relative="1" as="geometry"/>
                </mxCell>
                <mxCell id="MjZ8GeQzOf2C36DFY4yn-40" style="edgeStyle=orthogonalEdgeStyle;rounded=0;orthogonalLoop=1;jettySize=auto;html=1;" parent="1" source="MjZ8GeQzOf2C36DFY4yn-31" target="MjZ8GeQzOf2C36DFY4yn-39" edge="1">
                    <mxGeometry relative="1" as="geometry"/>
                </mxCell>
                <mxCell id="MjZ8GeQzOf2C36DFY4yn-31" value="send()" style="whiteSpace=wrap;html=1;fillColor=#b1ddf0;strokeColor=#10739e;sketch=1;curveFitting=1;jiggle=2;" parent="1" vertex="1">
                    <mxGeometry x="200" y="640" width="120" height="40" as="geometry"/>
                </mxCell>
                <mxCell id="MjZ8GeQzOf2C36DFY4yn-45" style="edgeStyle=orthogonalEdgeStyle;rounded=0;orthogonalLoop=1;jettySize=auto;html=1;" parent="1" source="MjZ8GeQzOf2C36DFY4yn-39" target="MjZ8GeQzOf2C36DFY4yn-44" edge="1">
                    <mxGeometry relative="1" as="geometry"/>
                </mxCell>
                <mxCell id="MjZ8GeQzOf2C36DFY4yn-39" value="recv()" style="whiteSpace=wrap;html=1;fillColor=#b0e3e6;strokeColor=#0e8088;sketch=1;curveFitting=1;jiggle=2;" parent="1" vertex="1">
                    <mxGeometry x="200" y="800" width="120" height="40" as="geometry"/>
                </mxCell>
                <mxCell id="MjZ8GeQzOf2C36DFY4yn-44" value="close()" style="whiteSpace=wrap;html=1;fillColor=#d0cee2;strokeColor=#56517e;sketch=1;curveFitting=1;jiggle=2;" parent="1" vertex="1">
                    <mxGeometry x="200" y="880" width="120" height="40" as="geometry"/>
                </mxCell>
            </root>
        </mxGraphModel>
    </diagram>
    <diagram name="udp-program-flow" id="W28sFcPUuHfBDUGK_39n">
        <mxGraphModel dx="1610" dy="661" grid="1" gridSize="10" guides="1" tooltips="1" connect="1" arrows="1" fold="1" page="1" pageScale="1" pageWidth="827" pageHeight="1169" math="0" shadow="1">
            <root>
                <mxCell id="MziNl918RX4CDFjO2CRm-0"/>
                <mxCell id="MziNl918RX4CDFjO2CRm-1" parent="MziNl918RX4CDFjO2CRm-0"/>
                <mxCell id="MziNl918RX4CDFjO2CRm-2" value="" style="image;html=1;image=img/lib/clip_art/computers/Server_128x128.png" parent="MziNl918RX4CDFjO2CRm-1" vertex="1">
                    <mxGeometry x="540" y="60" width="80" height="80" as="geometry"/>
                </mxCell>
                <mxCell id="MziNl918RX4CDFjO2CRm-3" value="" style="edgeStyle=orthogonalEdgeStyle;rounded=0;orthogonalLoop=1;jettySize=auto;html=1;" parent="MziNl918RX4CDFjO2CRm-1" source="MziNl918RX4CDFjO2CRm-4" target="MziNl918RX4CDFjO2CRm-6" edge="1">
                    <mxGeometry relative="1" as="geometry"/>
                </mxCell>
                <mxCell id="MziNl918RX4CDFjO2CRm-4" value="getaddrinfo()" style="rounded=0;whiteSpace=wrap;html=1;fillColor=#ffe6cc;strokeColor=#d79b00;sketch=1;curveFitting=1;jiggle=2;shadow=0;" parent="MziNl918RX4CDFjO2CRm-1" vertex="1">
                    <mxGeometry x="520" y="160" width="120" height="40" as="geometry"/>
                </mxCell>
                <mxCell id="MziNl918RX4CDFjO2CRm-5" value="" style="edgeStyle=orthogonalEdgeStyle;rounded=0;orthogonalLoop=1;jettySize=auto;html=1;" parent="MziNl918RX4CDFjO2CRm-1" source="MziNl918RX4CDFjO2CRm-6" target="MziNl918RX4CDFjO2CRm-8" edge="1">
                    <mxGeometry relative="1" as="geometry"/>
                </mxCell>
                <mxCell id="MziNl918RX4CDFjO2CRm-6" value="socket()" style="rounded=0;whiteSpace=wrap;html=1;fillColor=#fff2cc;strokeColor=#d6b656;shadow=0;sketch=1;curveFitting=1;jiggle=2;glass=0;" parent="MziNl918RX4CDFjO2CRm-1" vertex="1">
                    <mxGeometry x="520" y="240" width="120" height="40" as="geometry"/>
                </mxCell>
                <mxCell id="JJdq94ohlM8Xqc1sR4AO-3" value="" style="edgeStyle=orthogonalEdgeStyle;rounded=0;orthogonalLoop=1;jettySize=auto;html=1;" parent="MziNl918RX4CDFjO2CRm-1" source="MziNl918RX4CDFjO2CRm-8" target="MziNl918RX4CDFjO2CRm-16" edge="1">
                    <mxGeometry relative="1" as="geometry"/>
                </mxCell>
                <mxCell id="MziNl918RX4CDFjO2CRm-8" value="bind()" style="rounded=0;whiteSpace=wrap;html=1;sketch=1;curveFitting=1;jiggle=2;fillColor=#f8cecc;strokeColor=#b85450;" parent="MziNl918RX4CDFjO2CRm-1" vertex="1">
                    <mxGeometry x="520" y="320" width="120" height="40" as="geometry"/>
                </mxCell>
                <mxCell id="JJdq94ohlM8Xqc1sR4AO-4" value="" style="edgeStyle=orthogonalEdgeStyle;rounded=0;orthogonalLoop=1;jettySize=auto;html=1;" parent="MziNl918RX4CDFjO2CRm-1" source="MziNl918RX4CDFjO2CRm-16" target="MziNl918RX4CDFjO2CRm-21" edge="1">
                    <mxGeometry relative="1" as="geometry"/>
                </mxCell>
                <mxCell id="MziNl918RX4CDFjO2CRm-16" value="recvfrom()" style="whiteSpace=wrap;html=1;fillColor=#b0e3e6;strokeColor=#0e8088;sketch=1;curveFitting=1;jiggle=2;" parent="MziNl918RX4CDFjO2CRm-1" vertex="1">
                    <mxGeometry x="520" y="403" width="120" height="40" as="geometry"/>
                </mxCell>
                <mxCell id="MziNl918RX4CDFjO2CRm-17" value="" style="edgeStyle=orthogonalEdgeStyle;rounded=0;orthogonalLoop=1;jettySize=auto;html=1;" parent="MziNl918RX4CDFjO2CRm-1" source="MziNl918RX4CDFjO2CRm-19" target="MziNl918RX4CDFjO2CRm-22" edge="1">
                    <mxGeometry relative="1" as="geometry"/>
                </mxCell>
                <mxCell id="JJdq94ohlM8Xqc1sR4AO-9" value="data (response)" style="edgeStyle=orthogonalEdgeStyle;rounded=0;orthogonalLoop=1;jettySize=auto;html=1;dashed=1;fontColor=default;labelBackgroundColor=none;verticalAlign=bottom;" parent="MziNl918RX4CDFjO2CRm-1" source="MziNl918RX4CDFjO2CRm-19" target="MziNl918RX4CDFjO2CRm-36" edge="1">
                    <mxGeometry relative="1" as="geometry"/>
                </mxCell>
                <mxCell id="MziNl918RX4CDFjO2CRm-19" value="sendto()" style="whiteSpace=wrap;html=1;fillColor=#b1ddf0;strokeColor=#10739e;sketch=1;curveFitting=1;jiggle=2;" parent="MziNl918RX4CDFjO2CRm-1" vertex="1">
                    <mxGeometry x="520" y="563" width="120" height="40" as="geometry"/>
                </mxCell>
                <mxCell id="JJdq94ohlM8Xqc1sR4AO-7" value="" style="edgeStyle=orthogonalEdgeStyle;rounded=0;orthogonalLoop=1;jettySize=auto;html=1;" parent="MziNl918RX4CDFjO2CRm-1" source="MziNl918RX4CDFjO2CRm-21" target="MziNl918RX4CDFjO2CRm-19" edge="1">
                    <mxGeometry relative="1" as="geometry"/>
                </mxCell>
                <mxCell id="MziNl918RX4CDFjO2CRm-21" value="process request" style="text;html=1;strokeColor=none;fillColor=none;align=center;verticalAlign=middle;whiteSpace=wrap;rounded=0;" parent="MziNl918RX4CDFjO2CRm-1" vertex="1">
                    <mxGeometry x="520" y="485" width="120" height="30" as="geometry"/>
                </mxCell>
                <mxCell id="MziNl918RX4CDFjO2CRm-22" value="close()" style="whiteSpace=wrap;html=1;fillColor=#d0cee2;strokeColor=#56517e;sketch=1;curveFitting=1;jiggle=2;" parent="MziNl918RX4CDFjO2CRm-1" vertex="1">
                    <mxGeometry x="520" y="643" width="120" height="40" as="geometry"/>
                </mxCell>
                <mxCell id="MziNl918RX4CDFjO2CRm-23" value="" style="outlineConnect=0;dashed=0;verticalLabelPosition=bottom;verticalAlign=top;align=center;html=1;shape=mxgraph.aws3.management_console;fillColor=#D2D3D3;gradientColor=none;" parent="MziNl918RX4CDFjO2CRm-1" vertex="1">
                    <mxGeometry x="228.5" y="140" width="63" height="63" as="geometry"/>
                </mxCell>
                <mxCell id="JJdq94ohlM8Xqc1sR4AO-1" value="" style="edgeStyle=orthogonalEdgeStyle;rounded=0;orthogonalLoop=1;jettySize=auto;html=1;" parent="MziNl918RX4CDFjO2CRm-1" source="MziNl918RX4CDFjO2CRm-28" target="MziNl918RX4CDFjO2CRm-33" edge="1">
                    <mxGeometry relative="1" as="geometry"/>
                </mxCell>
                <mxCell id="MziNl918RX4CDFjO2CRm-28" value="socket()" style="rounded=0;whiteSpace=wrap;html=1;fillColor=#fff2cc;strokeColor=#d6b656;shadow=0;sketch=1;curveFitting=1;jiggle=2;" parent="MziNl918RX4CDFjO2CRm-1" vertex="1">
                    <mxGeometry x="200" y="323" width="120" height="40" as="geometry"/>
                </mxCell>
                <mxCell id="MziNl918RX4CDFjO2CRm-29" value="" style="edgeStyle=orthogonalEdgeStyle;rounded=0;orthogonalLoop=1;jettySize=auto;html=1;" parent="MziNl918RX4CDFjO2CRm-1" source="MziNl918RX4CDFjO2CRm-30" target="MziNl918RX4CDFjO2CRm-28" edge="1">
                    <mxGeometry relative="1" as="geometry"/>
                </mxCell>
                <mxCell id="MziNl918RX4CDFjO2CRm-30" value="getaddrinfo()" style="rounded=0;whiteSpace=wrap;html=1;fillColor=#ffe6cc;strokeColor=#d79b00;sketch=1;curveFitting=1;jiggle=2;" parent="MziNl918RX4CDFjO2CRm-1" vertex="1">
                    <mxGeometry x="200" y="243" width="120" height="40" as="geometry"/>
                </mxCell>
                <mxCell id="MziNl918RX4CDFjO2CRm-32" style="edgeStyle=orthogonalEdgeStyle;rounded=0;orthogonalLoop=1;jettySize=auto;html=1;" parent="MziNl918RX4CDFjO2CRm-1" source="MziNl918RX4CDFjO2CRm-33" target="MziNl918RX4CDFjO2CRm-36" edge="1">
                    <mxGeometry relative="1" as="geometry"/>
                </mxCell>
                <mxCell id="JJdq94ohlM8Xqc1sR4AO-6" value="data (request)" style="edgeStyle=orthogonalEdgeStyle;rounded=0;orthogonalLoop=1;jettySize=auto;html=1;dashed=1;verticalAlign=bottom;labelBackgroundColor=none;" parent="MziNl918RX4CDFjO2CRm-1" source="MziNl918RX4CDFjO2CRm-33" target="MziNl918RX4CDFjO2CRm-16" edge="1">
                    <mxGeometry relative="1" as="geometry"/>
                </mxCell>
                <mxCell id="MziNl918RX4CDFjO2CRm-33" value="sendto()" style="whiteSpace=wrap;html=1;fillColor=#b1ddf0;strokeColor=#10739e;sketch=1;curveFitting=1;jiggle=2;" parent="MziNl918RX4CDFjO2CRm-1" vertex="1">
                    <mxGeometry x="200" y="403" width="120" height="40" as="geometry"/>
                </mxCell>
                <mxCell id="JJdq94ohlM8Xqc1sR4AO-2" value="" style="edgeStyle=orthogonalEdgeStyle;rounded=0;orthogonalLoop=1;jettySize=auto;html=1;" parent="MziNl918RX4CDFjO2CRm-1" source="MziNl918RX4CDFjO2CRm-36" target="MziNl918RX4CDFjO2CRm-38" edge="1">
                    <mxGeometry relative="1" as="geometry"/>
                </mxCell>
                <mxCell id="MziNl918RX4CDFjO2CRm-36" value="recvfrom()" style="whiteSpace=wrap;html=1;fillColor=#b0e3e6;strokeColor=#0e8088;sketch=1;curveFitting=1;jiggle=2;" parent="MziNl918RX4CDFjO2CRm-1" vertex="1">
                    <mxGeometry x="200" y="563" width="120" height="40" as="geometry"/>
                </mxCell>
                <mxCell id="MziNl918RX4CDFjO2CRm-38" value="close()" style="whiteSpace=wrap;html=1;fillColor=#d0cee2;strokeColor=#56517e;sketch=1;curveFitting=1;jiggle=2;" parent="MziNl918RX4CDFjO2CRm-1" vertex="1">
                    <mxGeometry x="200" y="643" width="120" height="40" as="geometry"/>
                </mxCell>
            </root>
        </mxGraphModel>
    </diagram>
    <diagram id="35j7xVQT3ian1LzY67QV" name="tcp-client">
        <mxGraphModel dx="1610" dy="661" grid="1" gridSize="10" guides="1" tooltips="1" connect="1" arrows="1" fold="1" page="1" pageScale="1" pageWidth="827" pageHeight="1169" math="0" shadow="0">
            <root>
                <mxCell id="0"/>
                <mxCell id="1" parent="0"/>
                <mxCell id="0sCw1XXhlZzE3Rdo4qL7-9" value="" style="edgeStyle=orthogonalEdgeStyle;rounded=0;orthogonalLoop=1;jettySize=auto;html=1;" parent="1" source="0sCw1XXhlZzE3Rdo4qL7-1" target="0sCw1XXhlZzE3Rdo4qL7-6" edge="1">
                    <mxGeometry relative="1" as="geometry"/>
                </mxCell>
                <mxCell id="0sCw1XXhlZzE3Rdo4qL7-1" value="connect()" style="rounded=0;whiteSpace=wrap;html=1;fillColor=#fad9d5;strokeColor=#ae4132;sketch=1;curveFitting=1;jiggle=2;" parent="1" vertex="1">
                    <mxGeometry x="360" y="200" width="120" height="40" as="geometry"/>
                </mxCell>
                <mxCell id="0sCw1XXhlZzE3Rdo4qL7-2" value="" style="edgeStyle=orthogonalEdgeStyle;rounded=0;orthogonalLoop=1;jettySize=auto;html=1;" parent="1" source="0sCw1XXhlZzE3Rdo4qL7-3" target="0sCw1XXhlZzE3Rdo4qL7-1" edge="1">
                    <mxGeometry relative="1" as="geometry"/>
                </mxCell>
                <mxCell id="0sCw1XXhlZzE3Rdo4qL7-3" value="socket()" style="rounded=0;whiteSpace=wrap;html=1;fillColor=#fff2cc;strokeColor=#d6b656;shadow=0;sketch=1;curveFitting=1;jiggle=2;" parent="1" vertex="1">
                    <mxGeometry x="360" y="120" width="120" height="40" as="geometry"/>
                </mxCell>
                <mxCell id="0sCw1XXhlZzE3Rdo4qL7-4" value="" style="edgeStyle=orthogonalEdgeStyle;rounded=0;orthogonalLoop=1;jettySize=auto;html=1;" parent="1" source="0sCw1XXhlZzE3Rdo4qL7-5" target="0sCw1XXhlZzE3Rdo4qL7-3" edge="1">
                    <mxGeometry relative="1" as="geometry"/>
                </mxCell>
                <mxCell id="0sCw1XXhlZzE3Rdo4qL7-5" value="getaddrinfo()" style="rounded=0;whiteSpace=wrap;html=1;fillColor=#ffe6cc;strokeColor=#d79b00;sketch=1;curveFitting=1;jiggle=2;" parent="1" vertex="1">
                    <mxGeometry x="360" y="40" width="120" height="40" as="geometry"/>
                </mxCell>
                <mxCell id="0sCw1XXhlZzE3Rdo4qL7-11" value="No" style="edgeStyle=orthogonalEdgeStyle;rounded=0;orthogonalLoop=1;jettySize=auto;html=1;labelBackgroundColor=none;" parent="1" source="0sCw1XXhlZzE3Rdo4qL7-6" target="0sCw1XXhlZzE3Rdo4qL7-10" edge="1">
                    <mxGeometry y="-10" relative="1" as="geometry">
                        <mxPoint as="offset"/>
                    </mxGeometry>
                </mxCell>
                <mxCell id="TZvFEFqqjgfdP_82OWA0-3" value="Yes" style="edgeStyle=orthogonalEdgeStyle;rounded=0;orthogonalLoop=1;jettySize=auto;html=1;verticalAlign=bottom;labelBackgroundColor=none;" parent="1" source="0sCw1XXhlZzE3Rdo4qL7-6" target="0sCw1XXhlZzE3Rdo4qL7-8" edge="1">
                    <mxGeometry relative="1" as="geometry"/>
                </mxCell>
                <mxCell id="0sCw1XXhlZzE3Rdo4qL7-6" value="Has stdin input?" style="rhombus;whiteSpace=wrap;html=1;shadow=0;glass=0;sketch=1;fillColor=#fad7ac;strokeColor=#b46504;" parent="1" vertex="1">
                    <mxGeometry x="360" y="320" width="120" height="80" as="geometry"/>
                </mxCell>
                <mxCell id="_6fah4MB7_Q6959kTd0W-2" value="" style="edgeStyle=orthogonalEdgeStyle;rounded=0;orthogonalLoop=1;jettySize=auto;html=1;" parent="1" source="0sCw1XXhlZzE3Rdo4qL7-8" target="_6fah4MB7_Q6959kTd0W-1" edge="1">
                    <mxGeometry relative="1" as="geometry"/>
                </mxCell>
                <mxCell id="0sCw1XXhlZzE3Rdo4qL7-8" value="fgets(stdin)" style="rounded=0;whiteSpace=wrap;html=1;fillColor=#fad9d5;strokeColor=#ae4132;sketch=1;curveFitting=1;jiggle=2;" parent="1" vertex="1">
                    <mxGeometry x="560" y="340" width="120" height="40" as="geometry"/>
                </mxCell>
                <mxCell id="TZvFEFqqjgfdP_82OWA0-2" value="Yes" style="edgeStyle=orthogonalEdgeStyle;rounded=0;orthogonalLoop=1;jettySize=auto;html=1;verticalAlign=bottom;labelBackgroundColor=none;" parent="1" source="0sCw1XXhlZzE3Rdo4qL7-10" target="TZvFEFqqjgfdP_82OWA0-1" edge="1">
                    <mxGeometry relative="1" as="geometry"/>
                </mxCell>
                <mxCell id="zPrixphqga2yk-YmCOv0-7" style="edgeStyle=orthogonalEdgeStyle;rounded=0;orthogonalLoop=1;jettySize=auto;html=1;exitX=0.5;exitY=1;exitDx=0;exitDy=0;entryX=0.5;entryY=0;entryDx=0;entryDy=0;" parent="1" source="0sCw1XXhlZzE3Rdo4qL7-10" target="0sCw1XXhlZzE3Rdo4qL7-6" edge="1">
                    <mxGeometry relative="1" as="geometry">
                        <Array as="points">
                            <mxPoint x="420" y="600"/>
                            <mxPoint x="760" y="600"/>
                            <mxPoint x="760" y="280"/>
                            <mxPoint x="420" y="280"/>
                        </Array>
                    </mxGeometry>
                </mxCell>
                <mxCell id="zPrixphqga2yk-YmCOv0-8" value="No" style="edgeLabel;html=1;align=center;verticalAlign=middle;resizable=0;points=[];labelBackgroundColor=none;" parent="zPrixphqga2yk-YmCOv0-7" vertex="1" connectable="0">
                    <mxGeometry x="-0.9593" y="-1" relative="1" as="geometry">
                        <mxPoint x="-19" y="3" as="offset"/>
                    </mxGeometry>
                </mxCell>
                <mxCell id="0sCw1XXhlZzE3Rdo4qL7-10" value="Has socket input?" style="rhombus;whiteSpace=wrap;html=1;shadow=0;glass=0;sketch=1;fillColor=#fad7ac;strokeColor=#b46504;" parent="1" vertex="1">
                    <mxGeometry x="360" y="480" width="120" height="80" as="geometry"/>
                </mxCell>
                <mxCell id="TZvFEFqqjgfdP_82OWA0-5" value="" style="edgeStyle=orthogonalEdgeStyle;rounded=0;orthogonalLoop=1;jettySize=auto;html=1;" parent="1" source="TZvFEFqqjgfdP_82OWA0-1" target="TZvFEFqqjgfdP_82OWA0-4" edge="1">
                    <mxGeometry relative="1" as="geometry"/>
                </mxCell>
                <mxCell id="TZvFEFqqjgfdP_82OWA0-1" value="recv()" style="whiteSpace=wrap;html=1;fillColor=#b0e3e6;strokeColor=#0e8088;sketch=1;curveFitting=1;jiggle=2;" parent="1" vertex="1">
                    <mxGeometry x="160" y="500" width="120" height="40" as="geometry"/>
                </mxCell>
                <mxCell id="zPrixphqga2yk-YmCOv0-2" value="" style="edgeStyle=orthogonalEdgeStyle;rounded=0;orthogonalLoop=1;jettySize=auto;html=1;" parent="1" source="TZvFEFqqjgfdP_82OWA0-4" target="zPrixphqga2yk-YmCOv0-1" edge="1">
                    <mxGeometry relative="1" as="geometry"/>
                </mxCell>
                <mxCell id="zPrixphqga2yk-YmCOv0-3" value="Yes" style="edgeLabel;html=1;align=right;verticalAlign=middle;resizable=0;points=[];labelBackgroundColor=none;" parent="zPrixphqga2yk-YmCOv0-2" vertex="1" connectable="0">
                    <mxGeometry y="2" relative="1" as="geometry">
                        <mxPoint x="-12" as="offset"/>
                    </mxGeometry>
                </mxCell>
                <mxCell id="zPrixphqga2yk-YmCOv0-5" style="edgeStyle=orthogonalEdgeStyle;rounded=0;orthogonalLoop=1;jettySize=auto;html=1;" parent="1" source="TZvFEFqqjgfdP_82OWA0-4" target="zPrixphqga2yk-YmCOv0-4" edge="1">
                    <mxGeometry relative="1" as="geometry"/>
                </mxCell>
                <mxCell id="TZvFEFqqjgfdP_82OWA0-4" value="Socket closed&lt;br&gt;by peer?" style="rhombus;whiteSpace=wrap;html=1;shadow=0;glass=0;sketch=1;fillColor=#fad7ac;strokeColor=#b46504;" parent="1" vertex="1">
                    <mxGeometry x="160" y="600" width="120" height="80" as="geometry"/>
                </mxCell>
                <mxCell id="_6fah4MB7_Q6959kTd0W-4" style="edgeStyle=orthogonalEdgeStyle;rounded=0;orthogonalLoop=1;jettySize=auto;html=1;entryX=1;entryY=0.5;entryDx=0;entryDy=0;exitX=0.5;exitY=1;exitDx=0;exitDy=0;" parent="1" source="_6fah4MB7_Q6959kTd0W-1" target="0sCw1XXhlZzE3Rdo4qL7-10" edge="1">
                    <mxGeometry relative="1" as="geometry"/>
                </mxCell>
                <mxCell id="_6fah4MB7_Q6959kTd0W-1" value="send()" style="whiteSpace=wrap;html=1;fillColor=#b1ddf0;strokeColor=#10739e;sketch=1;curveFitting=1;jiggle=2;" parent="1" vertex="1">
                    <mxGeometry x="560" y="420" width="120" height="40" as="geometry"/>
                </mxCell>
                <mxCell id="zPrixphqga2yk-YmCOv0-1" value="close()" style="whiteSpace=wrap;html=1;fillColor=#d0cee2;strokeColor=#56517e;sketch=1;curveFitting=1;jiggle=2;" parent="1" vertex="1">
                    <mxGeometry x="160" y="740" width="120" height="40" as="geometry"/>
                </mxCell>
                <mxCell id="zPrixphqga2yk-YmCOv0-6" style="edgeStyle=orthogonalEdgeStyle;rounded=0;orthogonalLoop=1;jettySize=auto;html=1;entryX=0.5;entryY=0;entryDx=0;entryDy=0;" parent="1" source="zPrixphqga2yk-YmCOv0-4" target="0sCw1XXhlZzE3Rdo4qL7-6" edge="1">
                    <mxGeometry relative="1" as="geometry">
                        <Array as="points">
                            <mxPoint x="760" y="640"/>
                            <mxPoint x="760" y="280"/>
                            <mxPoint x="420" y="280"/>
                        </Array>
                    </mxGeometry>
                </mxCell>
                <mxCell id="zPrixphqga2yk-YmCOv0-4" value="printf()" style="whiteSpace=wrap;html=1;fillColor=#bac8d3;sketch=1;curveFitting=1;jiggle=2;strokeColor=#23445d;" parent="1" vertex="1">
                    <mxGeometry x="560" y="620" width="120" height="40" as="geometry"/>
                </mxCell>
            </root>
        </mxGraphModel>
    </diagram>
    <diagram name="tcp-server" id="qZ9TrD9lmefSPVMZA4m5">
        <mxGraphModel dx="1674" dy="777" grid="1" gridSize="10" guides="1" tooltips="1" connect="1" arrows="1" fold="1" page="1" pageScale="1" pageWidth="827" pageHeight="1169" math="0" shadow="0">
            <root>
                <mxCell id="kcLClsPZ5jbRXNX1diU2-0"/>
                <mxCell id="kcLClsPZ5jbRXNX1diU2-1" parent="kcLClsPZ5jbRXNX1diU2-0"/>
                <mxCell id="5w4sZ1eVOZrv-vFVo4lo-5" value="" style="edgeStyle=orthogonalEdgeStyle;rounded=0;orthogonalLoop=1;jettySize=auto;html=1;labelBackgroundColor=none;fontColor=default;" edge="1" parent="kcLClsPZ5jbRXNX1diU2-1" source="kcLClsPZ5jbRXNX1diU2-5" target="5w4sZ1eVOZrv-vFVo4lo-2">
                    <mxGeometry relative="1" as="geometry"/>
                </mxCell>
                <mxCell id="kcLClsPZ5jbRXNX1diU2-5" value="socket()" style="rounded=0;whiteSpace=wrap;html=1;fillColor=#fff2cc;strokeColor=#d6b656;shadow=0;sketch=1;curveFitting=1;jiggle=2;" vertex="1" parent="kcLClsPZ5jbRXNX1diU2-1">
                    <mxGeometry x="360" y="120" width="120" height="40" as="geometry"/>
                </mxCell>
                <mxCell id="kcLClsPZ5jbRXNX1diU2-6" value="" style="edgeStyle=orthogonalEdgeStyle;rounded=0;orthogonalLoop=1;jettySize=auto;html=1;" edge="1" parent="kcLClsPZ5jbRXNX1diU2-1" source="kcLClsPZ5jbRXNX1diU2-7" target="kcLClsPZ5jbRXNX1diU2-5">
                    <mxGeometry relative="1" as="geometry"/>
                </mxCell>
                <mxCell id="kcLClsPZ5jbRXNX1diU2-7" value="getaddrinfo()" style="rounded=0;whiteSpace=wrap;html=1;fillColor=#ffe6cc;strokeColor=#d79b00;sketch=1;curveFitting=1;jiggle=2;" vertex="1" parent="kcLClsPZ5jbRXNX1diU2-1">
                    <mxGeometry x="360" y="40" width="120" height="40" as="geometry"/>
                </mxCell>
                <mxCell id="kcLClsPZ5jbRXNX1diU2-8" value="No" style="edgeStyle=orthogonalEdgeStyle;rounded=0;orthogonalLoop=1;jettySize=auto;html=1;verticalAlign=middle;align=right;labelBackgroundColor=none;" edge="1" parent="kcLClsPZ5jbRXNX1diU2-1" source="kcLClsPZ5jbRXNX1diU2-10" target="kcLClsPZ5jbRXNX1diU2-16">
                    <mxGeometry relative="1" as="geometry"/>
                </mxCell>
                <mxCell id="kcLClsPZ5jbRXNX1diU2-9" value="Yes" style="edgeStyle=orthogonalEdgeStyle;rounded=0;orthogonalLoop=1;jettySize=auto;html=1;entryX=0;entryY=0.5;entryDx=0;entryDy=0;verticalAlign=bottom;labelBackgroundColor=none;" edge="1" parent="kcLClsPZ5jbRXNX1diU2-1" source="kcLClsPZ5jbRXNX1diU2-10" target="4c2qJsje_w9qoEH0Mgzu-0">
                    <mxGeometry relative="1" as="geometry">
                        <mxPoint x="560" y="480" as="targetPoint"/>
                    </mxGeometry>
                </mxCell>
                <mxCell id="kcLClsPZ5jbRXNX1diU2-10" value="New connection?" style="rhombus;whiteSpace=wrap;html=1;shadow=0;glass=0;sketch=1;fillColor=#fad7ac;strokeColor=#b46504;" vertex="1" parent="kcLClsPZ5jbRXNX1diU2-1">
                    <mxGeometry x="360" y="440" width="120" height="80" as="geometry"/>
                </mxCell>
                <mxCell id="kcLClsPZ5jbRXNX1diU2-13" value="Yes" style="edgeStyle=orthogonalEdgeStyle;rounded=0;orthogonalLoop=1;jettySize=auto;html=1;verticalAlign=bottom;labelBackgroundColor=none;" edge="1" parent="kcLClsPZ5jbRXNX1diU2-1" source="kcLClsPZ5jbRXNX1diU2-16" target="kcLClsPZ5jbRXNX1diU2-18">
                    <mxGeometry relative="1" as="geometry"/>
                </mxCell>
                <mxCell id="bpF_qeD8jW18Oe8CKtsP-7" style="edgeStyle=orthogonalEdgeStyle;rounded=0;orthogonalLoop=1;jettySize=auto;html=1;entryX=1;entryY=0.5;entryDx=0;entryDy=0;labelBackgroundColor=none;fontColor=default;exitX=0.5;exitY=1;exitDx=0;exitDy=0;verticalAlign=middle;" edge="1" parent="kcLClsPZ5jbRXNX1diU2-1" source="kcLClsPZ5jbRXNX1diU2-16" target="nx7RSvWb2mr978NaOLiV-2">
                    <mxGeometry relative="1" as="geometry">
                        <Array as="points">
                            <mxPoint x="420" y="680"/>
                            <mxPoint x="760" y="680"/>
                            <mxPoint x="760" y="380"/>
                        </Array>
                    </mxGeometry>
                </mxCell>
                <mxCell id="bpF_qeD8jW18Oe8CKtsP-9" value="No" style="edgeLabel;html=1;align=center;verticalAlign=middle;resizable=0;points=[];fontColor=default;" vertex="1" connectable="0" parent="bpF_qeD8jW18Oe8CKtsP-7">
                    <mxGeometry x="-0.9271" relative="1" as="geometry">
                        <mxPoint x="-10" y="-15" as="offset"/>
                    </mxGeometry>
                </mxCell>
                <mxCell id="kcLClsPZ5jbRXNX1diU2-16" value="Has socket input?" style="rhombus;whiteSpace=wrap;html=1;shadow=0;glass=0;sketch=1;fillColor=#fad7ac;strokeColor=#b46504;" vertex="1" parent="kcLClsPZ5jbRXNX1diU2-1">
                    <mxGeometry x="360" y="560" width="120" height="80" as="geometry"/>
                </mxCell>
                <mxCell id="kcLClsPZ5jbRXNX1diU2-17" value="" style="edgeStyle=orthogonalEdgeStyle;rounded=0;orthogonalLoop=1;jettySize=auto;html=1;" edge="1" parent="kcLClsPZ5jbRXNX1diU2-1" source="kcLClsPZ5jbRXNX1diU2-18" target="kcLClsPZ5jbRXNX1diU2-22">
                    <mxGeometry relative="1" as="geometry"/>
                </mxCell>
                <mxCell id="kcLClsPZ5jbRXNX1diU2-18" value="recv()" style="whiteSpace=wrap;html=1;fillColor=#b0e3e6;strokeColor=#0e8088;sketch=1;curveFitting=1;jiggle=2;" vertex="1" parent="kcLClsPZ5jbRXNX1diU2-1">
                    <mxGeometry x="120" y="580" width="120" height="40" as="geometry"/>
                </mxCell>
                <mxCell id="kcLClsPZ5jbRXNX1diU2-19" value="" style="edgeStyle=orthogonalEdgeStyle;rounded=0;orthogonalLoop=1;jettySize=auto;html=1;align=right;labelBackgroundColor=none;" edge="1" parent="kcLClsPZ5jbRXNX1diU2-1" source="kcLClsPZ5jbRXNX1diU2-22" target="kcLClsPZ5jbRXNX1diU2-25">
                    <mxGeometry relative="1" as="geometry"/>
                </mxCell>
                <mxCell id="kcLClsPZ5jbRXNX1diU2-20" value="Yes" style="edgeLabel;html=1;align=center;verticalAlign=middle;resizable=0;points=[];" vertex="1" connectable="0" parent="kcLClsPZ5jbRXNX1diU2-19">
                    <mxGeometry y="2" relative="1" as="geometry">
                        <mxPoint x="-22" as="offset"/>
                    </mxGeometry>
                </mxCell>
                <mxCell id="kcLClsPZ5jbRXNX1diU2-21" value="No" style="edgeStyle=orthogonalEdgeStyle;rounded=0;orthogonalLoop=1;jettySize=auto;html=1;verticalAlign=bottom;labelBackgroundColor=none;" edge="1" parent="kcLClsPZ5jbRXNX1diU2-1" source="kcLClsPZ5jbRXNX1diU2-22" target="kcLClsPZ5jbRXNX1diU2-27">
                    <mxGeometry relative="1" as="geometry"/>
                </mxCell>
                <mxCell id="kcLClsPZ5jbRXNX1diU2-22" value="Socket closed&lt;br&gt;by peer?" style="rhombus;whiteSpace=wrap;html=1;shadow=0;glass=0;sketch=1;fillColor=#fad7ac;strokeColor=#b46504;" vertex="1" parent="kcLClsPZ5jbRXNX1diU2-1">
                    <mxGeometry x="120" y="700" width="120" height="80" as="geometry"/>
                </mxCell>
                <mxCell id="bpF_qeD8jW18Oe8CKtsP-5" style="edgeStyle=orthogonalEdgeStyle;rounded=0;orthogonalLoop=1;jettySize=auto;html=1;entryX=1;entryY=0.5;entryDx=0;entryDy=0;labelBackgroundColor=none;fontColor=default;exitX=0.5;exitY=1;exitDx=0;exitDy=0;" edge="1" parent="kcLClsPZ5jbRXNX1diU2-1" source="kcLClsPZ5jbRXNX1diU2-25" target="nx7RSvWb2mr978NaOLiV-2">
                    <mxGeometry relative="1" as="geometry">
                        <Array as="points">
                            <mxPoint x="180" y="880"/>
                            <mxPoint x="760" y="880"/>
                            <mxPoint x="760" y="380"/>
                        </Array>
                    </mxGeometry>
                </mxCell>
                <mxCell id="kcLClsPZ5jbRXNX1diU2-25" value="close()" style="whiteSpace=wrap;html=1;fillColor=#d0cee2;strokeColor=#56517e;sketch=1;curveFitting=1;jiggle=2;" vertex="1" parent="kcLClsPZ5jbRXNX1diU2-1">
                    <mxGeometry x="120" y="840" width="120" height="40" as="geometry"/>
                </mxCell>
                <mxCell id="bpF_qeD8jW18Oe8CKtsP-4" value="" style="edgeStyle=orthogonalEdgeStyle;rounded=0;orthogonalLoop=1;jettySize=auto;html=1;labelBackgroundColor=none;fontColor=default;" edge="1" parent="kcLClsPZ5jbRXNX1diU2-1" source="kcLClsPZ5jbRXNX1diU2-27" target="bpF_qeD8jW18Oe8CKtsP-0">
                    <mxGeometry relative="1" as="geometry"/>
                </mxCell>
                <mxCell id="kcLClsPZ5jbRXNX1diU2-27" value="toupper()" style="whiteSpace=wrap;html=1;fillColor=#bac8d3;sketch=1;curveFitting=1;jiggle=2;strokeColor=#23445d;" vertex="1" parent="kcLClsPZ5jbRXNX1diU2-1">
                    <mxGeometry x="360" y="720" width="120" height="40" as="geometry"/>
                </mxCell>
                <mxCell id="5w4sZ1eVOZrv-vFVo4lo-7" value="" style="edgeStyle=orthogonalEdgeStyle;rounded=0;orthogonalLoop=1;jettySize=auto;html=1;labelBackgroundColor=none;fontColor=default;entryX=0.5;entryY=0;entryDx=0;entryDy=0;" edge="1" parent="kcLClsPZ5jbRXNX1diU2-1" source="5w4sZ1eVOZrv-vFVo4lo-2" target="nx7RSvWb2mr978NaOLiV-0">
                    <mxGeometry relative="1" as="geometry">
                        <mxPoint x="420" y="280" as="targetPoint"/>
                    </mxGeometry>
                </mxCell>
                <mxCell id="5w4sZ1eVOZrv-vFVo4lo-2" value="bind()" style="rounded=0;whiteSpace=wrap;html=1;sketch=1;curveFitting=1;jiggle=2;fillColor=#f8cecc;strokeColor=#b85450;" vertex="1" parent="kcLClsPZ5jbRXNX1diU2-1">
                    <mxGeometry x="360" y="200" width="120" height="40" as="geometry"/>
                </mxCell>
                <mxCell id="nx7RSvWb2mr978NaOLiV-3" value="" style="edgeStyle=orthogonalEdgeStyle;rounded=0;orthogonalLoop=1;jettySize=auto;html=1;labelBackgroundColor=none;fontColor=default;" edge="1" parent="kcLClsPZ5jbRXNX1diU2-1" source="nx7RSvWb2mr978NaOLiV-0" target="nx7RSvWb2mr978NaOLiV-2">
                    <mxGeometry relative="1" as="geometry"/>
                </mxCell>
                <mxCell id="nx7RSvWb2mr978NaOLiV-0" value="listen()" style="rounded=0;whiteSpace=wrap;html=1;fillColor=#e1d5e7;strokeColor=#9673a6;sketch=1;curveFitting=1;jiggle=2;" vertex="1" parent="kcLClsPZ5jbRXNX1diU2-1">
                    <mxGeometry x="360" y="280" width="120" height="40" as="geometry"/>
                </mxCell>
                <mxCell id="nx7RSvWb2mr978NaOLiV-4" style="edgeStyle=orthogonalEdgeStyle;rounded=0;orthogonalLoop=1;jettySize=auto;html=1;labelBackgroundColor=none;fontColor=default;" edge="1" parent="kcLClsPZ5jbRXNX1diU2-1" source="nx7RSvWb2mr978NaOLiV-2" target="kcLClsPZ5jbRXNX1diU2-10">
                    <mxGeometry relative="1" as="geometry"/>
                </mxCell>
                <mxCell id="nx7RSvWb2mr978NaOLiV-2" value="select()" style="rounded=0;whiteSpace=wrap;html=1;fillColor=#b1ddf0;strokeColor=#10739e;sketch=1;curveFitting=1;jiggle=2;" vertex="1" parent="kcLClsPZ5jbRXNX1diU2-1">
                    <mxGeometry x="360" y="360" width="120" height="40" as="geometry"/>
                </mxCell>
                <mxCell id="LBwpZpRijRbJGrYJBHCQ-1" style="edgeStyle=orthogonalEdgeStyle;rounded=0;orthogonalLoop=1;jettySize=auto;html=1;entryX=1;entryY=0.5;entryDx=0;entryDy=0;labelBackgroundColor=none;fontColor=default;exitX=0.5;exitY=1;exitDx=0;exitDy=0;" edge="1" parent="kcLClsPZ5jbRXNX1diU2-1" source="4c2qJsje_w9qoEH0Mgzu-0" target="kcLClsPZ5jbRXNX1diU2-16">
                    <mxGeometry relative="1" as="geometry"/>
                </mxCell>
                <mxCell id="4c2qJsje_w9qoEH0Mgzu-0" value="accept()" style="rounded=0;whiteSpace=wrap;html=1;fillColor=#f5f5f5;fontColor=#333333;strokeColor=#666666;shadow=0;sketch=1;curveFitting=1;jiggle=2;" vertex="1" parent="kcLClsPZ5jbRXNX1diU2-1">
                    <mxGeometry x="560" y="460" width="120" height="40" as="geometry"/>
                </mxCell>
                <mxCell id="bpF_qeD8jW18Oe8CKtsP-6" style="edgeStyle=orthogonalEdgeStyle;rounded=0;orthogonalLoop=1;jettySize=auto;html=1;exitX=1;exitY=0.5;exitDx=0;exitDy=0;entryX=1;entryY=0.5;entryDx=0;entryDy=0;labelBackgroundColor=none;fontColor=default;" edge="1" parent="kcLClsPZ5jbRXNX1diU2-1" source="bpF_qeD8jW18Oe8CKtsP-0" target="nx7RSvWb2mr978NaOLiV-2">
                    <mxGeometry relative="1" as="geometry">
                        <Array as="points">
                            <mxPoint x="760" y="820"/>
                            <mxPoint x="760" y="380"/>
                        </Array>
                    </mxGeometry>
                </mxCell>
                <mxCell id="bpF_qeD8jW18Oe8CKtsP-0" value="send()" style="whiteSpace=wrap;html=1;fillColor=#b1ddf0;strokeColor=#10739e;sketch=1;curveFitting=1;jiggle=2;" vertex="1" parent="kcLClsPZ5jbRXNX1diU2-1">
                    <mxGeometry x="360" y="800" width="120" height="40" as="geometry"/>
                </mxCell>
            </root>
        </mxGraphModel>
    </diagram>
</mxfile>
